<svg xmlns="http://www.w3.org/2000/svg" viewBox="0 0 128 128" width="128" height="128" stroke-linejoin="round" stroke-linecap="round"><ellipse cx="64" cy="115" rx="34" ry="5.5" fill="#23384D" opacity="0.18"/><rect x="58" y="96" width="12" height="16" rx="2" fill="#8E98AB" stroke="#4F463D" stroke-width="4.5" /><rect x="44" y="108" width="40" height="6" rx="3" fill="#8E98AB" stroke="#4F463D" stroke-width="4.5" /><circle cx="100" cy="24" r="12" fill="#F5C542" stroke="#4F463D" stroke-width="4.5"/><line x1="117.0" y1="24.0" x2="123.0" y2="24.0" stroke="#E0A92E" stroke-width="4"/><line x1="112.0" y1="36.0" x2="116.3" y2="40.3" stroke="#E0A92E" stroke-width="4"/><line x1="100.0" y1="41.0" x2="100.0" y2="47.0" stroke="#E0A92E" stroke-width="4"/><line x1="88.0" y1="36.0" x2="83.7" y2="40.3" stroke="#E0A92E" stroke-width="4"/><line x1="83.0" y1="24.0" x2="77.0" y2="24.0" stroke="#E0A92E" stroke-width="4"/><line x1="88.0" y1="12.0" x2="83.7" y2="7.7" stroke="#E0A92E" stroke-width="4"/><line x1="100.0" y1="7.0" x2="100.0" y2="1.0" stroke="#E0A92E" stroke-width="4"/><line x1="112.0" y1="12.0" x2="116.3" y2="7.7" stroke="#E0A92E" stroke-width="4"/><polygon points="16.0,62.0 82.0,42.0 110.0,80.0 44.0,100.0" fill="#2F5DA8" stroke="#4F463D" stroke-width="5" /><line x1="38.0" y1="55.3" x2="66.0" y2="93.3" stroke="#9FC3F0" stroke-width="2.5"/><line x1="60.0" y1="48.7" x2="88.0" y2="86.7" stroke="#9FC3F0" stroke-width="2.5"/><line x1="30.0" y1="81.0" x2="96.0" y2="61.0" stroke="#9FC3F0" stroke-width="2.5"/><line x1="30.0" y1="64.0" x2="58.0" y2="56.0" stroke="#CFE2FA" stroke-width="3.5"/></svg>