<svg xmlns="http://www.w3.org/2000/svg" viewBox="0 0 128 128" width="128" height="128" stroke-linejoin="round" stroke-linecap="round"><ellipse cx="64" cy="115" rx="40" ry="5.5" fill="#23384D" opacity="0.18"/><rect x="30" y="36" width="20" height="32" rx="4" fill="#E5566B" stroke="#4F463D" stroke-width="4.5" /><rect x="30" y="44" width="20" height="12" rx="0" fill="#FFFFFF" stroke="#4F463D" stroke-width="3" /><rect x="56" y="20" width="18" height="48" rx="6" fill="#9FDDF2" stroke="#4F463D" stroke-width="4.5" /><rect x="59" y="13" width="12" height="9" rx="3" fill="#3A9EF5" stroke="#4F463D" stroke-width="3" /><line x1="60.0" y1="34.0" x2="60.0" y2="58.0" stroke="#FFFFFF" stroke-width="3"/><rect x="80" y="40" width="20" height="28" rx="4" fill="#5BB74E" stroke="#4F463D" stroke-width="4.5" /><rect x="80" y="48" width="20" height="10" rx="0" fill="#F5E9C9" stroke="#4F463D" stroke-width="3" /><polygon points="18.0,62.0 30.0,52.0 98.0,52.0 110.0,62.0" fill="#E4B37A" stroke="#4F463D" stroke-width="4.5" /><rect x="18" y="62" width="92" height="48" rx="4" fill="#D9A066" stroke="#4F463D" stroke-width="4.5" /><rect x="56" y="62" width="16" height="48" rx="0" fill="#EBC995" stroke="#4F463D" stroke-width="3" /><line x1="28.0" y1="100.0" x2="46.0" y2="100.0" stroke="#B9834F" stroke-width="3"/></svg>