<svg xmlns="http://www.w3.org/2000/svg" viewBox="0 0 600 450" width="600" height="450" stroke-linejoin="round"><g data-zone="garden"><path d="M24 436 L24 196 L90 204 L150 226 L214 262 L236 280 L236 362 L576 368 L576 436 Z" fill="#C79566" stroke="#4F463D" stroke-width="3" stroke-linejoin="round"/><path d="M24 196 L90 204 L150 226 L214 262 L236 280 L236 362 L576 368 576 398 L236 392 L236 310 L214 292 L150 256 L90 234 L24 226 Z" fill="#98DC62" stroke="#4F463D" stroke-width="3" stroke-linejoin="round"/><rect x="61" y="148.0" width="10" height="66.0" rx="2" fill="#8C6440" stroke="#4F463D" stroke-width="3" /><circle cx="66" cy="139.6" r="32" fill="#4FAE52" stroke="#4F463D" stroke-width="2.5"/><circle cx="48.4" cy="154.0" r="22.4" fill="#4FAE52" stroke="#4F463D" stroke-width="2.5"/><circle cx="83.6" cy="154.0" r="22.4" fill="#4FAE52" stroke="#4F463D" stroke-width="2.5"/><circle cx="56.4" cy="124.0" r="8.0" fill="#B9E89A" opacity="0.8"/><rect x="70" y="222" width="24" height="8" rx="3" fill="#D9D3C9" stroke="#4F463D" stroke-width="2" /><rect x="104" y="236" width="24" height="8" rx="3" fill="#D9D3C9" stroke="#4F463D" stroke-width="2" /><rect x="138" y="250" width="24" height="8" rx="3" fill="#D9D3C9" stroke="#4F463D" stroke-width="2" /><rect x="172" y="264" width="24" height="8" rx="3" fill="#D9D3C9" stroke="#4F463D" stroke-width="2" /><rect x="206" y="278" width="24" height="8" rx="3" fill="#D9D3C9" stroke="#4F463D" stroke-width="2" /><circle cx="140.4" cy="236" r="12.0" fill="#5BB74E" stroke="#4F463D" stroke-width="2.5"/><circle cx="159.6" cy="236" r="12.0" fill="#5BB74E" stroke="#4F463D" stroke-width="2.5"/><circle cx="150" cy="228.8" r="13.6" fill="#5BB74E" stroke="#4F463D" stroke-width="2.5"/><circle cx="187.6" cy="262" r="10.5" fill="#6CC04F" stroke="#4F463D" stroke-width="2.5"/><circle cx="204.4" cy="262" r="10.5" fill="#6CC04F" stroke="#4F463D" stroke-width="2.5"/><circle cx="196" cy="255.7" r="11.9" fill="#6CC04F" stroke="#4F463D" stroke-width="2.5"/><rect x="420" y="360" width="150" height="10" fill="#D8D2C2" stroke="#4F463D" stroke-width="2"/></g><g data-zone="foundation"><rect x="232" y="358" width="240" height="14" rx="1" fill="#A9A9A2" stroke="#4F463D" stroke-width="3" /><rect x="494" y="360" width="22" height="12" rx="1" fill="#A9A9A2" stroke="#4F463D" stroke-width="2" /></g><g data-zone="none"><rect x="236" y="270" width="236" height="90" rx="1" fill="#CFCFC9" stroke="#4F463D" stroke-width="3" /><circle cx="256" cy="290" r="2" fill="#A9A9A2" stroke="#4F463D" stroke-width="0"/><circle cx="256" cy="320" r="2" fill="#A9A9A2" stroke="#4F463D" stroke-width="0"/><circle cx="256" cy="346" r="2" fill="#A9A9A2" stroke="#4F463D" stroke-width="0"/><circle cx="286" cy="290" r="2" fill="#A9A9A2" stroke="#4F463D" stroke-width="0"/><circle cx="286" cy="320" r="2" fill="#A9A9A2" stroke="#4F463D" stroke-width="0"/><circle cx="286" cy="346" r="2" fill="#A9A9A2" stroke="#4F463D" stroke-width="0"/><circle cx="316" cy="290" r="2" fill="#A9A9A2" stroke="#4F463D" stroke-width="0"/><circle cx="316" cy="320" r="2" fill="#A9A9A2" stroke="#4F463D" stroke-width="0"/><circle cx="316" cy="346" r="2" fill="#A9A9A2" stroke="#4F463D" stroke-width="0"/><circle cx="346" cy="290" r="2" fill="#A9A9A2" stroke="#4F463D" stroke-width="0"/><circle cx="346" cy="320" r="2" fill="#A9A9A2" stroke="#4F463D" stroke-width="0"/><circle cx="346" cy="346" r="2" fill="#A9A9A2" stroke="#4F463D" stroke-width="0"/><circle cx="376" cy="290" r="2" fill="#A9A9A2" stroke="#4F463D" stroke-width="0"/><circle cx="376" cy="320" r="2" fill="#A9A9A2" stroke="#4F463D" stroke-width="0"/><circle cx="376" cy="346" r="2" fill="#A9A9A2" stroke="#4F463D" stroke-width="0"/><circle cx="406" cy="290" r="2" fill="#A9A9A2" stroke="#4F463D" stroke-width="0"/><circle cx="406" cy="320" r="2" fill="#A9A9A2" stroke="#4F463D" stroke-width="0"/><circle cx="406" cy="346" r="2" fill="#A9A9A2" stroke="#4F463D" stroke-width="0"/><circle cx="436" cy="290" r="2" fill="#A9A9A2" stroke="#4F463D" stroke-width="0"/><circle cx="436" cy="320" r="2" fill="#A9A9A2" stroke="#4F463D" stroke-width="0"/><circle cx="436" cy="346" r="2" fill="#A9A9A2" stroke="#4F463D" stroke-width="0"/><circle cx="466" cy="290" r="2" fill="#A9A9A2" stroke="#4F463D" stroke-width="0"/><circle cx="466" cy="320" r="2" fill="#A9A9A2" stroke="#4F463D" stroke-width="0"/><circle cx="466" cy="346" r="2" fill="#A9A9A2" stroke="#4F463D" stroke-width="0"/><rect x="498" y="272" width="14" height="88" rx="1" fill="#CFCFC9" stroke="#4F463D" stroke-width="2.5" /><rect x="150" y="262" width="372" height="12" rx="1" fill="#D8D8D2" stroke="#4F463D" stroke-width="3" /><rect x="178" y="168" width="280" height="94" rx="1" fill="#C48A4F" stroke="#4F463D" stroke-width="3" /><rect x="186" y="176" width="62" height="86" rx="1" fill="#BFE6F5" stroke="#4F463D" stroke-width="2" /><line x1="196" y1="240" x2="216" y2="190" stroke="#FFFFFF" stroke-width="3" stroke-linecap="round" class="so"/><rect x="254" y="176" width="62" height="86" rx="1" fill="#BFE6F5" stroke="#4F463D" stroke-width="2" /><line x1="264" y1="240" x2="284" y2="190" stroke="#FFFFFF" stroke-width="3" stroke-linecap="round" class="so"/><rect x="322" y="176" width="62" height="86" rx="1" fill="#BFE6F5" stroke="#4F463D" stroke-width="2" /><line x1="332" y1="240" x2="352" y2="190" stroke="#FFFFFF" stroke-width="3" stroke-linecap="round" class="so"/><rect x="390" y="176" width="62" height="86" rx="1" fill="#BFE6F5" stroke="#4F463D" stroke-width="2" /><line x1="400" y1="240" x2="420" y2="190" stroke="#FFFFFF" stroke-width="3" stroke-linecap="round" class="so"/><rect x="230" y="168" width="10" height="94" rx="1" fill="#E6E6E0" stroke="#4F463D" stroke-width="2" /><rect x="410" y="168" width="10" height="94" rx="1" fill="#E6E6E0" stroke="#4F463D" stroke-width="2" /><line x1="156" y1="236" x2="156" y2="262" stroke="#4F463D" stroke-width="1.5" stroke-linecap="round" class="so"/><line x1="166" y1="236" x2="166" y2="262" stroke="#4F463D" stroke-width="1.5" stroke-linecap="round" class="so"/><line x1="176" y1="236" x2="176" y2="262" stroke="#4F463D" stroke-width="1.5" stroke-linecap="round" class="so"/><line x1="186" y1="236" x2="186" y2="262" stroke="#4F463D" stroke-width="1.5" stroke-linecap="round" class="so"/><line x1="196" y1="236" x2="196" y2="262" stroke="#4F463D" stroke-width="1.5" stroke-linecap="round" class="so"/><line x1="206" y1="236" x2="206" y2="262" stroke="#4F463D" stroke-width="1.5" stroke-linecap="round" class="so"/><line x1="216" y1="236" x2="216" y2="262" stroke="#4F463D" stroke-width="1.5" stroke-linecap="round" class="so"/><line x1="226" y1="236" x2="226" y2="262" stroke="#4F463D" stroke-width="1.5" stroke-linecap="round" class="so"/><line x1="236" y1="236" x2="236" y2="262" stroke="#4F463D" stroke-width="1.5" stroke-linecap="round" class="so"/><line x1="246" y1="236" x2="246" y2="262" stroke="#4F463D" stroke-width="1.5" stroke-linecap="round" class="so"/><line x1="256" y1="236" x2="256" y2="262" stroke="#4F463D" stroke-width="1.5" stroke-linecap="round" class="so"/><line x1="266" y1="236" x2="266" y2="262" stroke="#4F463D" stroke-width="1.5" stroke-linecap="round" class="so"/><line x1="276" y1="236" x2="276" y2="262" stroke="#4F463D" stroke-width="1.5" stroke-linecap="round" class="so"/><line x1="286" y1="236" x2="286" y2="262" stroke="#4F463D" stroke-width="1.5" stroke-linecap="round" class="so"/><line x1="296" y1="236" x2="296" y2="262" stroke="#4F463D" stroke-width="1.5" stroke-linecap="round" class="so"/><line x1="306" y1="236" x2="306" y2="262" stroke="#4F463D" stroke-width="1.5" stroke-linecap="round" class="so"/><line x1="316" y1="236" x2="316" y2="262" stroke="#4F463D" stroke-width="1.5" stroke-linecap="round" class="so"/><line x1="326" y1="236" x2="326" y2="262" stroke="#4F463D" stroke-width="1.5" stroke-linecap="round" class="so"/><line x1="336" y1="236" x2="336" y2="262" stroke="#4F463D" stroke-width="1.5" stroke-linecap="round" class="so"/><line x1="346" y1="236" x2="346" y2="262" stroke="#4F463D" stroke-width="1.5" stroke-linecap="round" class="so"/><line x1="356" y1="236" x2="356" y2="262" stroke="#4F463D" stroke-width="1.5" stroke-linecap="round" class="so"/><line x1="366" y1="236" x2="366" y2="262" stroke="#4F463D" stroke-width="1.5" stroke-linecap="round" class="so"/><line x1="376" y1="236" x2="376" y2="262" stroke="#4F463D" stroke-width="1.5" stroke-linecap="round" class="so"/><line x1="386" y1="236" x2="386" y2="262" stroke="#4F463D" stroke-width="1.5" stroke-linecap="round" class="so"/><line x1="396" y1="236" x2="396" y2="262" stroke="#4F463D" stroke-width="1.5" stroke-linecap="round" class="so"/><line x1="406" y1="236" x2="406" y2="262" stroke="#4F463D" stroke-width="1.5" stroke-linecap="round" class="so"/><line x1="416" y1="236" x2="416" y2="262" stroke="#4F463D" stroke-width="1.5" stroke-linecap="round" class="so"/><line x1="426" y1="236" x2="426" y2="262" stroke="#4F463D" stroke-width="1.5" stroke-linecap="round" class="so"/><line x1="436" y1="236" x2="436" y2="262" stroke="#4F463D" stroke-width="1.5" stroke-linecap="round" class="so"/><line x1="446" y1="236" x2="446" y2="262" stroke="#4F463D" stroke-width="1.5" stroke-linecap="round" class="so"/><line x1="456" y1="236" x2="456" y2="262" stroke="#4F463D" stroke-width="1.5" stroke-linecap="round" class="so"/><line x1="466" y1="236" x2="466" y2="262" stroke="#4F463D" stroke-width="1.5" stroke-linecap="round" class="so"/><line x1="476" y1="236" x2="476" y2="262" stroke="#4F463D" stroke-width="1.5" stroke-linecap="round" class="so"/><line x1="486" y1="236" x2="486" y2="262" stroke="#4F463D" stroke-width="1.5" stroke-linecap="round" class="so"/><line x1="496" y1="236" x2="496" y2="262" stroke="#4F463D" stroke-width="1.5" stroke-linecap="round" class="so"/><line x1="506" y1="236" x2="506" y2="262" stroke="#4F463D" stroke-width="1.5" stroke-linecap="round" class="so"/><line x1="516" y1="236" x2="516" y2="262" stroke="#4F463D" stroke-width="1.5" stroke-linecap="round" class="so"/><line x1="152" y1="236" x2="520" y2="236" stroke="#4F463D" stroke-width="2.5" stroke-linecap="round" class="so"/><rect x="170" y="246" width="14" height="14" rx="2" fill="#C77A5B" stroke="#4F463D" stroke-width="2" /><circle cx="172.8" cy="242" r="5.25" fill="#5BB74E" stroke="#4F463D" stroke-width="2.5"/><circle cx="181.2" cy="242" r="5.25" fill="#5BB74E" stroke="#4F463D" stroke-width="2.5"/><circle cx="177" cy="238.85" r="5.95" fill="#5BB74E" stroke="#4F463D" stroke-width="2.5"/><rect x="300" y="246" width="14" height="14" rx="2" fill="#C77A5B" stroke="#4F463D" stroke-width="2" /><circle cx="302.8" cy="242" r="5.25" fill="#5BB74E" stroke="#4F463D" stroke-width="2.5"/><circle cx="311.2" cy="242" r="5.25" fill="#5BB74E" stroke="#4F463D" stroke-width="2.5"/><circle cx="307" cy="238.85" r="5.95" fill="#5BB74E" stroke="#4F463D" stroke-width="2.5"/><rect x="440" y="246" width="14" height="14" rx="2" fill="#C77A5B" stroke="#4F463D" stroke-width="2" /><circle cx="442.8" cy="242" r="5.25" fill="#5BB74E" stroke="#4F463D" stroke-width="2.5"/><circle cx="451.2" cy="242" r="5.25" fill="#5BB74E" stroke="#4F463D" stroke-width="2.5"/><circle cx="447" cy="238.85" r="5.95" fill="#5BB74E" stroke="#4F463D" stroke-width="2.5"/><rect x="480" y="246" width="14" height="14" rx="2" fill="#C77A5B" stroke="#4F463D" stroke-width="2" /><circle cx="482.8" cy="242" r="5.25" fill="#5BB74E" stroke="#4F463D" stroke-width="2.5"/><circle cx="491.2" cy="242" r="5.25" fill="#5BB74E" stroke="#4F463D" stroke-width="2.5"/><circle cx="487" cy="238.85" r="5.95" fill="#5BB74E" stroke="#4F463D" stroke-width="2.5"/><rect x="380" y="288" width="70" height="50" rx="2" fill="#C48A4F" stroke="#4F463D" stroke-width="3" /><rect x="385" y="293" width="60" height="40" rx="1" fill="#BFE6F5" stroke="#4F463D" stroke-width="2" /><line x1="415.0" y1="293" x2="415.0" y2="333" stroke="#C48A4F" stroke-width="4" stroke-linecap="round" class="so"/><line x1="415.0" y1="293" x2="415.0" y2="333" stroke="#4F463D" stroke-width="1" stroke-linecap="round" class="so"/><line x1="391" y1="325" x2="403.0" y2="299" stroke="#FFFFFF" stroke-width="3" stroke-linecap="round" class="so"/></g><g data-zone="roof"><rect x="136" y="150" width="360" height="18" rx="2" fill="#D8D8D2" stroke="#4F463D" stroke-width="3" /><rect x="140" y="166" width="352" height="4" rx="0" fill="#B9B9B2" stroke="#4F463D" stroke-width="0" /></g><g data-zone="door"><rect x="292" y="284" width="66" height="76" rx="1" fill="#C48A4F" stroke="#4F463D" stroke-width="3" /><rect x="298" y="290" width="26" height="70" rx="1" fill="#BFE6F5" stroke="#4F463D" stroke-width="2" /><rect x="326" y="290" width="26" height="70" rx="1" fill="#BFE6F5" stroke="#4F463D" stroke-width="2" /><rect x="286" y="360" width="78" height="6" rx="1" fill="#B9B9B2" stroke="#4F463D" stroke-width="2" /></g><g data-zone="garden"><circle cx="549.2" cy="352" r="13.5" fill="#5BB74E" stroke="#4F463D" stroke-width="2.5"/><circle cx="570.8" cy="352" r="13.5" fill="#5BB74E" stroke="#4F463D" stroke-width="2.5"/><circle cx="560" cy="343.9" r="15.299999999999999" fill="#5BB74E" stroke="#4F463D" stroke-width="2.5"/><path d="M540 370 Q532.3395555688102 348 513.9544889339547 344.28849561253844" fill="none" stroke="#4C8F4A" stroke-width="5" stroke-linecap="round" class="so"/><path d="M540 370 Q535.305284372141 348 524.0379668652797 334.6820962856429" fill="none" stroke="#4C8F4A" stroke-width="5" stroke-linecap="round" class="so"/><path d="M540 370 Q538.2635182233307 348 534.0959619593243 330.60768987951167" fill="none" stroke="#4C8F4A" stroke-width="5" stroke-linecap="round" class="so"/><path d="M540 370 Q541.3917310096007 348 544.7318854326422 330.38927725033716" fill="none" stroke="#4C8F4A" stroke-width="5" stroke-linecap="round" class="so"/><path d="M540 370 Q544.3837114678907 348 554.9046189908287 334.0482381480333" fill="none" stroke="#4C8F4A" stroke-width="5" stroke-linecap="round" class="so"/><path d="M540 370 Q547.431448254774 348 565.2669240662314 343.23477574564566" fill="none" stroke="#4C8F4A" stroke-width="5" stroke-linecap="round" class="so"/></g></svg>