<svg xmlns="http://www.w3.org/2000/svg" viewBox="0 0 600 450" width="600" height="450" stroke-linejoin="round"><g data-zone="garden"><path d="M24 386 L24 404 Q24 436 60 436 L540 436 Q576 436 576 404 L576 386 Z" fill="#C79566" stroke="#4F463D" stroke-width="3"/><line x1="80" y1="412" x2="98" y2="412" stroke="#8C6440" stroke-width="3" stroke-linecap="round" class="so"/><line x1="190" y1="412" x2="208" y2="412" stroke="#8C6440" stroke-width="3" stroke-linecap="round" class="so"/><line x1="330" y1="412" x2="348" y2="412" stroke="#8C6440" stroke-width="3" stroke-linecap="round" class="so"/><line x1="450" y1="412" x2="468" y2="412" stroke="#8C6440" stroke-width="3" stroke-linecap="round" class="so"/><rect x="24" y="352" width="552" height="44" rx="22" fill="#98DC62" stroke="#4F463D" stroke-width="3" /><rect x="66" y="270" width="8" height="90" rx="2" fill="#8C7355" stroke="#4F463D" stroke-width="3" /><line x1="70" y1="270" x2="42.425382915658176" y2="266.1797400913275" stroke="#5E9E4A" stroke-width="4" stroke-linecap="round" class="so"/><line x1="70" y1="270" x2="45.75128869403572" y2="259.0" stroke="#5E9E4A" stroke-width="4" stroke-linecap="round" class="so"/><line x1="70" y1="270" x2="52.0019469287769" y2="253.14702225138248" stroke="#5E9E4A" stroke-width="4" stroke-linecap="round" class="so"/><line x1="70" y1="270" x2="60.42343598688127" y2="249.32676234271003" stroke="#5E9E4A" stroke-width="4" stroke-linecap="round" class="so"/><line x1="70" y1="270" x2="70.0" y2="248.0" stroke="#5E9E4A" stroke-width="4" stroke-linecap="round" class="so"/><line x1="70" y1="270" x2="79.57656401311873" y2="249.32676234271003" stroke="#5E9E4A" stroke-width="4" stroke-linecap="round" class="so"/><line x1="70" y1="270" x2="87.9980530712231" y2="253.14702225138248" stroke="#5E9E4A" stroke-width="4" stroke-linecap="round" class="so"/><line x1="70" y1="270" x2="94.24871130596428" y2="259.0" stroke="#5E9E4A" stroke-width="4" stroke-linecap="round" class="so"/><line x1="70" y1="270" x2="97.57461708434182" y2="266.1797400913275" stroke="#5E9E4A" stroke-width="4" stroke-linecap="round" class="so"/></g><g data-zone="foundation"><rect x="92" y="330" width="326" height="18" rx="1" fill="#A3A8B0" stroke="#4F463D" stroke-width="3" /><rect x="420" y="330" width="108" height="18" rx="1" fill="#A3A8B0" stroke="#4F463D" stroke-width="3" /></g><g data-zone="none"><rect x="90" y="236" width="330" height="94" rx="0" fill="#5C6370" stroke="#4F463D" stroke-width="3" /><line x1="92" y1="246" x2="418" y2="246" stroke="#4C5260" stroke-width="1.5" stroke-linecap="round" class="so"/><line x1="92" y1="256" x2="418" y2="256" stroke="#4C5260" stroke-width="1.5" stroke-linecap="round" class="so"/><line x1="92" y1="266" x2="418" y2="266" stroke="#4C5260" stroke-width="1.5" stroke-linecap="round" class="so"/><line x1="92" y1="276" x2="418" y2="276" stroke="#4C5260" stroke-width="1.5" stroke-linecap="round" class="so"/><line x1="92" y1="286" x2="418" y2="286" stroke="#4C5260" stroke-width="1.5" stroke-linecap="round" class="so"/><line x1="92" y1="296" x2="418" y2="296" stroke="#4C5260" stroke-width="1.5" stroke-linecap="round" class="so"/><line x1="92" y1="306" x2="418" y2="306" stroke="#4C5260" stroke-width="1.5" stroke-linecap="round" class="so"/><line x1="92" y1="316" x2="418" y2="316" stroke="#4C5260" stroke-width="1.5" stroke-linecap="round" class="so"/><line x1="92" y1="326" x2="418" y2="326" stroke="#4C5260" stroke-width="1.5" stroke-linecap="round" class="so"/><rect x="330" y="236" width="90" height="94" rx="0" fill="#C98B55" stroke="#4F463D" stroke-width="3" /><line x1="339" y1="238" x2="339" y2="328" stroke="#A86F40" stroke-width="1.5" stroke-linecap="round" class="so"/><line x1="348" y1="238" x2="348" y2="328" stroke="#A86F40" stroke-width="1.5" stroke-linecap="round" class="so"/><line x1="357" y1="238" x2="357" y2="328" stroke="#A86F40" stroke-width="1.5" stroke-linecap="round" class="so"/><line x1="366" y1="238" x2="366" y2="328" stroke="#A86F40" stroke-width="1.5" stroke-linecap="round" class="so"/><line x1="375" y1="238" x2="375" y2="328" stroke="#A86F40" stroke-width="1.5" stroke-linecap="round" class="so"/><line x1="384" y1="238" x2="384" y2="328" stroke="#A86F40" stroke-width="1.5" stroke-linecap="round" class="so"/><line x1="393" y1="238" x2="393" y2="328" stroke="#A86F40" stroke-width="1.5" stroke-linecap="round" class="so"/><line x1="402" y1="238" x2="402" y2="328" stroke="#A86F40" stroke-width="1.5" stroke-linecap="round" class="so"/><line x1="411" y1="238" x2="411" y2="328" stroke="#A86F40" stroke-width="1.5" stroke-linecap="round" class="so"/><rect x="108" y="252" width="150" height="74" rx="2" fill="#2F343E" stroke="#4F463D" stroke-width="3" /><rect x="113" y="257" width="140" height="64" rx="1" fill="#BFE6F5" stroke="#4F463D" stroke-width="2" /><line x1="159.66666666666666" y1="257" x2="159.66666666666666" y2="321" stroke="#2F343E" stroke-width="4" stroke-linecap="round" class="so"/><line x1="159.66666666666666" y1="257" x2="159.66666666666666" y2="321" stroke="#4F463D" stroke-width="1" stroke-linecap="round" class="so"/><line x1="206.33333333333331" y1="257" x2="206.33333333333331" y2="321" stroke="#2F343E" stroke-width="4" stroke-linecap="round" class="so"/><line x1="206.33333333333331" y1="257" x2="206.33333333333331" y2="321" stroke="#4F463D" stroke-width="1" stroke-linecap="round" class="so"/><line x1="119" y1="313" x2="141.8" y2="263" stroke="#FFFFFF" stroke-width="3" stroke-linecap="round" class="so"/><rect x="420" y="262" width="108" height="68" rx="0" fill="#5C6370" stroke="#4F463D" stroke-width="3" /><line x1="422" y1="272" x2="526" y2="272" stroke="#4C5260" stroke-width="1.5" stroke-linecap="round" class="so"/><line x1="422" y1="282" x2="526" y2="282" stroke="#4C5260" stroke-width="1.5" stroke-linecap="round" class="so"/><line x1="422" y1="292" x2="526" y2="292" stroke="#4C5260" stroke-width="1.5" stroke-linecap="round" class="so"/><line x1="422" y1="302" x2="526" y2="302" stroke="#4C5260" stroke-width="1.5" stroke-linecap="round" class="so"/><line x1="422" y1="312" x2="526" y2="312" stroke="#4C5260" stroke-width="1.5" stroke-linecap="round" class="so"/><line x1="422" y1="322" x2="526" y2="322" stroke="#4C5260" stroke-width="1.5" stroke-linecap="round" class="so"/><rect x="436" y="276" width="76" height="54" rx="1" fill="#D7DBE2" stroke="#4F463D" stroke-width="3" /><line x1="438" y1="284" x2="510" y2="284" stroke="#AEB4BF" stroke-width="2" stroke-linecap="round" class="so"/><line x1="438" y1="292" x2="510" y2="292" stroke="#AEB4BF" stroke-width="2" stroke-linecap="round" class="so"/><line x1="438" y1="300" x2="510" y2="300" stroke="#AEB4BF" stroke-width="2" stroke-linecap="round" class="so"/><line x1="438" y1="308" x2="510" y2="308" stroke="#AEB4BF" stroke-width="2" stroke-linecap="round" class="so"/><line x1="438" y1="316" x2="510" y2="316" stroke="#AEB4BF" stroke-width="2" stroke-linecap="round" class="so"/><line x1="438" y1="324" x2="510" y2="324" stroke="#AEB4BF" stroke-width="2" stroke-linecap="round" class="so"/><rect x="96" y="328" width="226" height="12" rx="1" fill="#C9A27A" stroke="#4F463D" stroke-width="2" /><line x1="104" y1="330" x2="104" y2="338" stroke="#9E7650" stroke-width="1.5" stroke-linecap="round" class="so"/><line x1="120" y1="330" x2="120" y2="338" stroke="#9E7650" stroke-width="1.5" stroke-linecap="round" class="so"/><line x1="136" y1="330" x2="136" y2="338" stroke="#9E7650" stroke-width="1.5" stroke-linecap="round" class="so"/><line x1="152" y1="330" x2="152" y2="338" stroke="#9E7650" stroke-width="1.5" stroke-linecap="round" class="so"/><line x1="168" y1="330" x2="168" y2="338" stroke="#9E7650" stroke-width="1.5" stroke-linecap="round" class="so"/><line x1="184" y1="330" x2="184" y2="338" stroke="#9E7650" stroke-width="1.5" stroke-linecap="round" class="so"/><line x1="200" y1="330" x2="200" y2="338" stroke="#9E7650" stroke-width="1.5" stroke-linecap="round" class="so"/><line x1="216" y1="330" x2="216" y2="338" stroke="#9E7650" stroke-width="1.5" stroke-linecap="round" class="so"/><line x1="232" y1="330" x2="232" y2="338" stroke="#9E7650" stroke-width="1.5" stroke-linecap="round" class="so"/><line x1="248" y1="330" x2="248" y2="338" stroke="#9E7650" stroke-width="1.5" stroke-linecap="round" class="so"/><line x1="264" y1="330" x2="264" y2="338" stroke="#9E7650" stroke-width="1.5" stroke-linecap="round" class="so"/><line x1="280" y1="330" x2="280" y2="338" stroke="#9E7650" stroke-width="1.5" stroke-linecap="round" class="so"/><line x1="296" y1="330" x2="296" y2="338" stroke="#9E7650" stroke-width="1.5" stroke-linecap="round" class="so"/><line x1="312" y1="330" x2="312" y2="338" stroke="#9E7650" stroke-width="1.5" stroke-linecap="round" class="so"/></g><g data-zone="roof"><polygon points="68,240 160,166 350,166 442,240" fill="#454B57" stroke="#4F463D" stroke-width="3" stroke-linejoin="round"/><clipPath id="c7"><polygon points="68,240 160,166 350,166 442,240"/></clipPath><g clip-path="url(#c7)"><line x1="68" y1="178" x2="442" y2="178" stroke="#2F343E" stroke-width="2" stroke-linecap="round" class="so"/><line x1="77" y1="169" x2="77" y2="176" stroke="#2F343E" stroke-width="1.2" stroke-linecap="round" class="so"/><line x1="95" y1="169" x2="95" y2="176" stroke="#2F343E" stroke-width="1.2" stroke-linecap="round" class="so"/><line x1="113" y1="169" x2="113" y2="176" stroke="#2F343E" stroke-width="1.2" stroke-linecap="round" class="so"/><line x1="131" y1="169" x2="131" y2="176" stroke="#2F343E" stroke-width="1.2" stroke-linecap="round" class="so"/><line x1="149" y1="169" x2="149" y2="176" stroke="#2F343E" stroke-width="1.2" stroke-linecap="round" class="so"/><line x1="167" y1="169" x2="167" y2="176" stroke="#2F343E" stroke-width="1.2" stroke-linecap="round" class="so"/><line x1="185" y1="169" x2="185" y2="176" stroke="#2F343E" stroke-width="1.2" stroke-linecap="round" class="so"/><line x1="203" y1="169" x2="203" y2="176" stroke="#2F343E" stroke-width="1.2" stroke-linecap="round" class="so"/><line x1="221" y1="169" x2="221" y2="176" stroke="#2F343E" stroke-width="1.2" stroke-linecap="round" class="so"/><line x1="239" y1="169" x2="239" y2="176" stroke="#2F343E" stroke-width="1.2" stroke-linecap="round" class="so"/><line x1="257" y1="169" x2="257" y2="176" stroke="#2F343E" stroke-width="1.2" stroke-linecap="round" class="so"/><line x1="275" y1="169" x2="275" y2="176" stroke="#2F343E" stroke-width="1.2" stroke-linecap="round" class="so"/><line x1="293" y1="169" x2="293" y2="176" stroke="#2F343E" stroke-width="1.2" stroke-linecap="round" class="so"/><line x1="311" y1="169" x2="311" y2="176" stroke="#2F343E" stroke-width="1.2" stroke-linecap="round" class="so"/><line x1="329" y1="169" x2="329" y2="176" stroke="#2F343E" stroke-width="1.2" stroke-linecap="round" class="so"/><line x1="347" y1="169" x2="347" y2="176" stroke="#2F343E" stroke-width="1.2" stroke-linecap="round" class="so"/><line x1="365" y1="169" x2="365" y2="176" stroke="#2F343E" stroke-width="1.2" stroke-linecap="round" class="so"/><line x1="383" y1="169" x2="383" y2="176" stroke="#2F343E" stroke-width="1.2" stroke-linecap="round" class="so"/><line x1="401" y1="169" x2="401" y2="176" stroke="#2F343E" stroke-width="1.2" stroke-linecap="round" class="so"/><line x1="419" y1="169" x2="419" y2="176" stroke="#2F343E" stroke-width="1.2" stroke-linecap="round" class="so"/><line x1="437" y1="169" x2="437" y2="176" stroke="#2F343E" stroke-width="1.2" stroke-linecap="round" class="so"/><line x1="68" y1="190" x2="442" y2="190" stroke="#2F343E" stroke-width="2" stroke-linecap="round" class="so"/><line x1="68" y1="181" x2="68" y2="188" stroke="#2F343E" stroke-width="1.2" stroke-linecap="round" class="so"/><line x1="86" y1="181" x2="86" y2="188" stroke="#2F343E" stroke-width="1.2" stroke-linecap="round" class="so"/><line x1="104" y1="181" x2="104" y2="188" stroke="#2F343E" stroke-width="1.2" stroke-linecap="round" class="so"/><line x1="122" y1="181" x2="122" y2="188" stroke="#2F343E" stroke-width="1.2" stroke-linecap="round" class="so"/><line x1="140" y1="181" x2="140" y2="188" stroke="#2F343E" stroke-width="1.2" stroke-linecap="round" class="so"/><line x1="158" y1="181" x2="158" y2="188" stroke="#2F343E" stroke-width="1.2" stroke-linecap="round" class="so"/><line x1="176" y1="181" x2="176" y2="188" stroke="#2F343E" stroke-width="1.2" stroke-linecap="round" class="so"/><line x1="194" y1="181" x2="194" y2="188" stroke="#2F343E" stroke-width="1.2" stroke-linecap="round" class="so"/><line x1="212" y1="181" x2="212" y2="188" stroke="#2F343E" stroke-width="1.2" stroke-linecap="round" class="so"/><line x1="230" y1="181" x2="230" y2="188" stroke="#2F343E" stroke-width="1.2" stroke-linecap="round" class="so"/><line x1="248" y1="181" x2="248" y2="188" stroke="#2F343E" stroke-width="1.2" stroke-linecap="round" class="so"/><line x1="266" y1="181" x2="266" y2="188" stroke="#2F343E" stroke-width="1.2" stroke-linecap="round" class="so"/><line x1="284" y1="181" x2="284" y2="188" stroke="#2F343E" stroke-width="1.2" stroke-linecap="round" class="so"/><line x1="302" y1="181" x2="302" y2="188" stroke="#2F343E" stroke-width="1.2" stroke-linecap="round" class="so"/><line x1="320" y1="181" x2="320" y2="188" stroke="#2F343E" stroke-width="1.2" stroke-linecap="round" class="so"/><line x1="338" y1="181" x2="338" y2="188" stroke="#2F343E" stroke-width="1.2" stroke-linecap="round" class="so"/><line x1="356" y1="181" x2="356" y2="188" stroke="#2F343E" stroke-width="1.2" stroke-linecap="round" class="so"/><line x1="374" y1="181" x2="374" y2="188" stroke="#2F343E" stroke-width="1.2" stroke-linecap="round" class="so"/><line x1="392" y1="181" x2="392" y2="188" stroke="#2F343E" stroke-width="1.2" stroke-linecap="round" class="so"/><line x1="410" y1="181" x2="410" y2="188" stroke="#2F343E" stroke-width="1.2" stroke-linecap="round" class="so"/><line x1="428" y1="181" x2="428" y2="188" stroke="#2F343E" stroke-width="1.2" stroke-linecap="round" class="so"/><line x1="68" y1="202" x2="442" y2="202" stroke="#2F343E" stroke-width="2" stroke-linecap="round" class="so"/><line x1="77" y1="193" x2="77" y2="200" stroke="#2F343E" stroke-width="1.2" stroke-linecap="round" class="so"/><line x1="95" y1="193" x2="95" y2="200" stroke="#2F343E" stroke-width="1.2" stroke-linecap="round" class="so"/><line x1="113" y1="193" x2="113" y2="200" stroke="#2F343E" stroke-width="1.2" stroke-linecap="round" class="so"/><line x1="131" y1="193" x2="131" y2="200" stroke="#2F343E" stroke-width="1.2" stroke-linecap="round" class="so"/><line x1="149" y1="193" x2="149" y2="200" stroke="#2F343E" stroke-width="1.2" stroke-linecap="round" class="so"/><line x1="167" y1="193" x2="167" y2="200" stroke="#2F343E" stroke-width="1.2" stroke-linecap="round" class="so"/><line x1="185" y1="193" x2="185" y2="200" stroke="#2F343E" stroke-width="1.2" stroke-linecap="round" class="so"/><line x1="203" y1="193" x2="203" y2="200" stroke="#2F343E" stroke-width="1.2" stroke-linecap="round" class="so"/><line x1="221" y1="193" x2="221" y2="200" stroke="#2F343E" stroke-width="1.2" stroke-linecap="round" class="so"/><line x1="239" y1="193" x2="239" y2="200" stroke="#2F343E" stroke-width="1.2" stroke-linecap="round" class="so"/><line x1="257" y1="193" x2="257" y2="200" stroke="#2F343E" stroke-width="1.2" stroke-linecap="round" class="so"/><line x1="275" y1="193" x2="275" y2="200" stroke="#2F343E" stroke-width="1.2" stroke-linecap="round" class="so"/><line x1="293" y1="193" x2="293" y2="200" stroke="#2F343E" stroke-width="1.2" stroke-linecap="round" class="so"/><line x1="311" y1="193" x2="311" y2="200" stroke="#2F343E" stroke-width="1.2" stroke-linecap="round" class="so"/><line x1="329" y1="193" x2="329" y2="200" stroke="#2F343E" stroke-width="1.2" stroke-linecap="round" class="so"/><line x1="347" y1="193" x2="347" y2="200" stroke="#2F343E" stroke-width="1.2" stroke-linecap="round" class="so"/><line x1="365" y1="193" x2="365" y2="200" stroke="#2F343E" stroke-width="1.2" stroke-linecap="round" class="so"/><line x1="383" y1="193" x2="383" y2="200" stroke="#2F343E" stroke-width="1.2" stroke-linecap="round" class="so"/><line x1="401" y1="193" x2="401" y2="200" stroke="#2F343E" stroke-width="1.2" stroke-linecap="round" class="so"/><line x1="419" y1="193" x2="419" y2="200" stroke="#2F343E" stroke-width="1.2" stroke-linecap="round" class="so"/><line x1="437" y1="193" x2="437" y2="200" stroke="#2F343E" stroke-width="1.2" stroke-linecap="round" class="so"/><line x1="68" y1="214" x2="442" y2="214" stroke="#2F343E" stroke-width="2" stroke-linecap="round" class="so"/><line x1="68" y1="205" x2="68" y2="212" stroke="#2F343E" stroke-width="1.2" stroke-linecap="round" class="so"/><line x1="86" y1="205" x2="86" y2="212" stroke="#2F343E" stroke-width="1.2" stroke-linecap="round" class="so"/><line x1="104" y1="205" x2="104" y2="212" stroke="#2F343E" stroke-width="1.2" stroke-linecap="round" class="so"/><line x1="122" y1="205" x2="122" y2="212" stroke="#2F343E" stroke-width="1.2" stroke-linecap="round" class="so"/><line x1="140" y1="205" x2="140" y2="212" stroke="#2F343E" stroke-width="1.2" stroke-linecap="round" class="so"/><line x1="158" y1="205" x2="158" y2="212" stroke="#2F343E" stroke-width="1.2" stroke-linecap="round" class="so"/><line x1="176" y1="205" x2="176" y2="212" stroke="#2F343E" stroke-width="1.2" stroke-linecap="round" class="so"/><line x1="194" y1="205" x2="194" y2="212" stroke="#2F343E" stroke-width="1.2" stroke-linecap="round" class="so"/><line x1="212" y1="205" x2="212" y2="212" stroke="#2F343E" stroke-width="1.2" stroke-linecap="round" class="so"/><line x1="230" y1="205" x2="230" y2="212" stroke="#2F343E" stroke-width="1.2" stroke-linecap="round" class="so"/><line x1="248" y1="205" x2="248" y2="212" stroke="#2F343E" stroke-width="1.2" stroke-linecap="round" class="so"/><line x1="266" y1="205" x2="266" y2="212" stroke="#2F343E" stroke-width="1.2" stroke-linecap="round" class="so"/><line x1="284" y1="205" x2="284" y2="212" stroke="#2F343E" stroke-width="1.2" stroke-linecap="round" class="so"/><line x1="302" y1="205" x2="302" y2="212" stroke="#2F343E" stroke-width="1.2" stroke-linecap="round" class="so"/><line x1="320" y1="205" x2="320" y2="212" stroke="#2F343E" stroke-width="1.2" stroke-linecap="round" class="so"/><line x1="338" y1="205" x2="338" y2="212" stroke="#2F343E" stroke-width="1.2" stroke-linecap="round" class="so"/><line x1="356" y1="205" x2="356" y2="212" stroke="#2F343E" stroke-width="1.2" stroke-linecap="round" class="so"/><line x1="374" y1="205" x2="374" y2="212" stroke="#2F343E" stroke-width="1.2" stroke-linecap="round" class="so"/><line x1="392" y1="205" x2="392" y2="212" stroke="#2F343E" stroke-width="1.2" stroke-linecap="round" class="so"/><line x1="410" y1="205" x2="410" y2="212" stroke="#2F343E" stroke-width="1.2" stroke-linecap="round" class="so"/><line x1="428" y1="205" x2="428" y2="212" stroke="#2F343E" stroke-width="1.2" stroke-linecap="round" class="so"/><line x1="68" y1="226" x2="442" y2="226" stroke="#2F343E" stroke-width="2" stroke-linecap="round" class="so"/><line x1="77" y1="217" x2="77" y2="224" stroke="#2F343E" stroke-width="1.2" stroke-linecap="round" class="so"/><line x1="95" y1="217" x2="95" y2="224" stroke="#2F343E" stroke-width="1.2" stroke-linecap="round" class="so"/><line x1="113" y1="217" x2="113" y2="224" stroke="#2F343E" stroke-width="1.2" stroke-linecap="round" class="so"/><line x1="131" y1="217" x2="131" y2="224" stroke="#2F343E" stroke-width="1.2" stroke-linecap="round" class="so"/><line x1="149" y1="217" x2="149" y2="224" stroke="#2F343E" stroke-width="1.2" stroke-linecap="round" class="so"/><line x1="167" y1="217" x2="167" y2="224" stroke="#2F343E" stroke-width="1.2" stroke-linecap="round" class="so"/><line x1="185" y1="217" x2="185" y2="224" stroke="#2F343E" stroke-width="1.2" stroke-linecap="round" class="so"/><line x1="203" y1="217" x2="203" y2="224" stroke="#2F343E" stroke-width="1.2" stroke-linecap="round" class="so"/><line x1="221" y1="217" x2="221" y2="224" stroke="#2F343E" stroke-width="1.2" stroke-linecap="round" class="so"/><line x1="239" y1="217" x2="239" y2="224" stroke="#2F343E" stroke-width="1.2" stroke-linecap="round" class="so"/><line x1="257" y1="217" x2="257" y2="224" stroke="#2F343E" stroke-width="1.2" stroke-linecap="round" class="so"/><line x1="275" y1="217" x2="275" y2="224" stroke="#2F343E" stroke-width="1.2" stroke-linecap="round" class="so"/><line x1="293" y1="217" x2="293" y2="224" stroke="#2F343E" stroke-width="1.2" stroke-linecap="round" class="so"/><line x1="311" y1="217" x2="311" y2="224" stroke="#2F343E" stroke-width="1.2" stroke-linecap="round" class="so"/><line x1="329" y1="217" x2="329" y2="224" stroke="#2F343E" stroke-width="1.2" stroke-linecap="round" class="so"/><line x1="347" y1="217" x2="347" y2="224" stroke="#2F343E" stroke-width="1.2" stroke-linecap="round" class="so"/><line x1="365" y1="217" x2="365" y2="224" stroke="#2F343E" stroke-width="1.2" stroke-linecap="round" class="so"/><line x1="383" y1="217" x2="383" y2="224" stroke="#2F343E" stroke-width="1.2" stroke-linecap="round" class="so"/><line x1="401" y1="217" x2="401" y2="224" stroke="#2F343E" stroke-width="1.2" stroke-linecap="round" class="so"/><line x1="419" y1="217" x2="419" y2="224" stroke="#2F343E" stroke-width="1.2" stroke-linecap="round" class="so"/><line x1="437" y1="217" x2="437" y2="224" stroke="#2F343E" stroke-width="1.2" stroke-linecap="round" class="so"/><line x1="68" y1="238" x2="442" y2="238" stroke="#2F343E" stroke-width="2" stroke-linecap="round" class="so"/><line x1="68" y1="229" x2="68" y2="236" stroke="#2F343E" stroke-width="1.2" stroke-linecap="round" class="so"/><line x1="86" y1="229" x2="86" y2="236" stroke="#2F343E" stroke-width="1.2" stroke-linecap="round" class="so"/><line x1="104" y1="229" x2="104" y2="236" stroke="#2F343E" stroke-width="1.2" stroke-linecap="round" class="so"/><line x1="122" y1="229" x2="122" y2="236" stroke="#2F343E" stroke-width="1.2" stroke-linecap="round" class="so"/><line x1="140" y1="229" x2="140" y2="236" stroke="#2F343E" stroke-width="1.2" stroke-linecap="round" class="so"/><line x1="158" y1="229" x2="158" y2="236" stroke="#2F343E" stroke-width="1.2" stroke-linecap="round" class="so"/><line x1="176" y1="229" x2="176" y2="236" stroke="#2F343E" stroke-width="1.2" stroke-linecap="round" class="so"/><line x1="194" y1="229" x2="194" y2="236" stroke="#2F343E" stroke-width="1.2" stroke-linecap="round" class="so"/><line x1="212" y1="229" x2="212" y2="236" stroke="#2F343E" stroke-width="1.2" stroke-linecap="round" class="so"/><line x1="230" y1="229" x2="230" y2="236" stroke="#2F343E" stroke-width="1.2" stroke-linecap="round" class="so"/><line x1="248" y1="229" x2="248" y2="236" stroke="#2F343E" stroke-width="1.2" stroke-linecap="round" class="so"/><line x1="266" y1="229" x2="266" y2="236" stroke="#2F343E" stroke-width="1.2" stroke-linecap="round" class="so"/><line x1="284" y1="229" x2="284" y2="236" stroke="#2F343E" stroke-width="1.2" stroke-linecap="round" class="so"/><line x1="302" y1="229" x2="302" y2="236" stroke="#2F343E" stroke-width="1.2" stroke-linecap="round" class="so"/><line x1="320" y1="229" x2="320" y2="236" stroke="#2F343E" stroke-width="1.2" stroke-linecap="round" class="so"/><line x1="338" y1="229" x2="338" y2="236" stroke="#2F343E" stroke-width="1.2" stroke-linecap="round" class="so"/><line x1="356" y1="229" x2="356" y2="236" stroke="#2F343E" stroke-width="1.2" stroke-linecap="round" class="so"/><line x1="374" y1="229" x2="374" y2="236" stroke="#2F343E" stroke-width="1.2" stroke-linecap="round" class="so"/><line x1="392" y1="229" x2="392" y2="236" stroke="#2F343E" stroke-width="1.2" stroke-linecap="round" class="so"/><line x1="410" y1="229" x2="410" y2="236" stroke="#2F343E" stroke-width="1.2" stroke-linecap="round" class="so"/><line x1="428" y1="229" x2="428" y2="236" stroke="#2F343E" stroke-width="1.2" stroke-linecap="round" class="so"/></g><rect x="130" y="132" width="20" height="54" rx="1" fill="#2F343E" stroke="#4F463D" stroke-width="3" /><rect x="126" y="128" width="28" height="8" rx="1" fill="#6E6A64" stroke="#4F463D" stroke-width="2" /><rect x="414" y="252" width="120" height="14" rx="2" fill="#3A3F49" stroke="#4F463D" stroke-width="3" /></g><g data-zone="door"><rect x="352" y="256" width="34" height="74" rx="2" fill="#8B5A33" stroke="#4F463D" stroke-width="3" /><circle cx="378" cy="296.7" r="2.5" fill="#F2C94C" stroke="#4F463D" stroke-width="1.5"/><rect x="345" y="332" width="48" height="9" rx="2" fill="#B9B4AC" stroke="#4F463D" stroke-width="2" /></g><g data-zone="garden"><path d="M345 352 L393 352 L405 396 L333 396 Z" fill="#CFCBC4" stroke="#4F463D" stroke-width="2.5"/><path d="M436 352 L512 352 L530 396 L420 396 Z" fill="#BDB8B0" stroke="#4F463D" stroke-width="2.5"/><path d="M150 360 Q142.33955556881023 338 123.95448893395475 334.28849561253844" fill="none" stroke="#4C8F4A" stroke-width="5" stroke-linecap="round" class="so"/><path d="M150 360 Q145.3052843721411 338 134.0379668652797 324.6820962856429" fill="none" stroke="#4C8F4A" stroke-width="5" stroke-linecap="round" class="so"/><path d="M150 360 Q148.2635182233307 338 144.09596195932437 320.60768987951167" fill="none" stroke="#4C8F4A" stroke-width="5" stroke-linecap="round" class="so"/><path d="M150 360 Q151.39173100960065 338 154.73188543264223 320.38927725033716" fill="none" stroke="#4C8F4A" stroke-width="5" stroke-linecap="round" class="so"/><path d="M150 360 Q154.38371146789078 338 164.90461899082862 324.0482381480333" fill="none" stroke="#4C8F4A" stroke-width="5" stroke-linecap="round" class="so"/><path d="M150 360 Q157.43144825477395 338 175.2669240662314 333.23477574564566" fill="none" stroke="#4C8F4A" stroke-width="5" stroke-linecap="round" class="so"/><path d="M260 362 Q252.33955556881023 340 233.95448893395474 336.28849561253844" fill="none" stroke="#6A8F3A" stroke-width="5" stroke-linecap="round" class="so"/><path d="M260 362 Q255.3052843721411 340 244.0379668652797 326.6820962856429" fill="none" stroke="#6A8F3A" stroke-width="5" stroke-linecap="round" class="so"/><path d="M260 362 Q258.2635182233307 340 254.09596195932437 322.60768987951167" fill="none" stroke="#6A8F3A" stroke-width="5" stroke-linecap="round" class="so"/><path d="M260 362 Q261.3917310096007 340 264.73188543264223 322.38927725033716" fill="none" stroke="#6A8F3A" stroke-width="5" stroke-linecap="round" class="so"/><path d="M260 362 Q264.38371146789075 340 274.9046189908286 326.0482381480333" fill="none" stroke="#6A8F3A" stroke-width="5" stroke-linecap="round" class="so"/><path d="M260 362 Q267.43144825477395 340 285.2669240662314 335.23477574564566" fill="none" stroke="#6A8F3A" stroke-width="5" stroke-linecap="round" class="so"/><path d="M560 362 Q552.3395555688102 340 533.9544889339547 336.28849561253844" fill="none" stroke="#4C8F4A" stroke-width="5" stroke-linecap="round" class="so"/><path d="M560 362 Q555.305284372141 340 544.0379668652797 326.6820962856429" fill="none" stroke="#4C8F4A" stroke-width="5" stroke-linecap="round" class="so"/><path d="M560 362 Q558.2635182233307 340 554.0959619593243 322.60768987951167" fill="none" stroke="#4C8F4A" stroke-width="5" stroke-linecap="round" class="so"/><path d="M560 362 Q561.3917310096007 340 564.7318854326422 322.38927725033716" fill="none" stroke="#4C8F4A" stroke-width="5" stroke-linecap="round" class="so"/><path d="M560 362 Q564.3837114678907 340 574.9046189908287 326.0482381480333" fill="none" stroke="#4C8F4A" stroke-width="5" stroke-linecap="round" class="so"/><path d="M560 362 Q567.431448254774 340 585.2669240662314 335.23477574564566" fill="none" stroke="#4C8F4A" stroke-width="5" stroke-linecap="round" class="so"/></g></svg>